<svg width="1024" height="1024" xmlns="http://www.w3.org/2000/svg" class="icon">
 <defs>
  <style type="text/css"/>
 </defs>
 <g>
  <title>background</title>
  <rect fill="none" id="canvas_background" height="402" width="582" y="-1" x="-1"/>
 </g>
 <g>
  <title>Layer 1</title>
  <path id="svg_1" fill="#55e22a" d="m36.475639,818.022766l72.527565,0c12.574799,0.205078 25.074921,-2.974243 32.168823,-8.922668l77.715546,-64.940063l110.912598,129.920959c4.679108,5.534973 13.891357,9.336182 24.350159,10.740906c19.009308,2.726257 38.895111,-2.891785 44.667786,-12.806458l149.878906,-255.875732l109.229614,186.601685c3.438416,8.758545 18.060364,15.284729 35.753174,15.284729l182.633667,0c3.146606,0 6.141541,-0.208374 9.136353,-0.621277c12.429016,11.732727 36.333252,19.707153 63.900024,19.707153c40.357544,0 73.035278,-17.063293 73.035278,-38.131592c0,-21.10791 -32.677734,-38.171204 -73.035278,-38.171204c-27.489746,0 -51.401001,7.971741 -63.900024,19.707153c-2.994812,-0.412842 -5.994446,-0.621277 -9.136353,-0.621277l-155.364502,0.000061l-137.23291,-234.357605c-5.848572,-10.037292 -26.250244,-15.741089 -45.552429,-12.64093c-6.650452,1.074341 -12.429016,3.10022 -16.67041,5.66095c-3.57843,1.983093 -6.287415,4.419189 -7.972717,7.188293l-156.166351,266.824463l-98.764984,-115.795654c-1.755341,-2.353027 -4.311417,-4.583984 -7.895737,-6.444397c-0.147018,-0.122681 -0.362976,-0.205078 -0.510025,-0.247925l-0.660583,-0.370605c-10.311722,-5.122864 -26.10321,-6.857239 -40.06459,-3.552673c-7.896912,1.817505 -13.967239,4.957336 -17.616898,8.718323l-101.848564,85.017761l-53.518265,0c-20.178759,0 -36.486118,8.5495 -36.486118,19.085327c0.001127,10.49292 16.384344,19.042297 36.487247,19.042297l0,0l0,0l0,0z"/>
 </g>
</svg>